<?xml version="1.0" encoding="UTF-8"?>
<svg width="739px" height="701px" viewBox="0 0 739 701" version="1.1" xmlns="http://www.w3.org/2000/svg" xmlns:xlink="http://www.w3.org/1999/xlink">
    <title>Gear</title>
    <g id="Gear" stroke="none" stroke-width="1" fill="none" fill-rule="evenodd">
        <path d="M437.56781,464.214491 C316.322566,527.274588 195.05742,406.229826 257.968126,284.917027 C267.794483,265.970071 283.282338,250.430621 302.190711,240.531869 C423.496988,177.031236 545.146909,298.362612 481.925729,419.857197 C472.060895,438.813442 456.526601,454.354218 437.56781,464.214491 L437.56781,464.214491 Z M592.921364,285.177102 C588.038702,268.870698 581.364847,253.280825 573.166487,238.721963 L612.629803,158.443873 L561.475962,107.328624 L480.308347,147.243421 C466.152609,139.628281 451.146386,133.446205 435.423685,128.83121 L406.127715,43 L333.8285,43 L304.578969,128.83121 C288.856268,133.446205 273.848718,139.628281 259.694306,147.243421 L178.526692,107.328624 L127.371524,158.443873 L166.83484,238.721963 C158.63648,253.280825 152.007736,268.825583 147.125075,285.131987 L63,313.80387 L63,386.107227 L145.647008,414.284173 C150.440773,431.666701 157.158413,448.197353 165.626116,463.696995 L127.371524,541.511012 L178.48158,592.624934 L255.3835,554.86504 C255.390134,554.862386 255.396768,554.862386 255.402075,554.86504 C267.706913,561.867147 280.707,567.74138 294.260366,572.406797 C301.905446,575.038061 307.935799,580.990582 310.546961,588.642875 C318.280938,611.314469 333.8285,657 333.8285,657 L406.127715,657 L433.721387,576.184512 C451.683744,571.077233 468.750503,563.910589 484.607212,554.861059 L561.519747,592.624934 L612.629803,541.511012 L574.376538,463.696995 C582.841587,448.197353 589.606992,431.666701 594.354319,414.284173 L677,386.107227 L677,313.80387 L592.921364,285.177102 Z" id="Fill-1" fill="#F9F7F2"></path>
    </g>
</svg>